<svg xmlns="http://www.w3.org/2000/svg" viewBox="0 0 547.94 451.34" fill="currentColor"><g id="Layer_2" data-name="Layer 2"><path d="M321.62,257.58q0,94.29-.06,188.57c0,19-6.89,29.51-21.42,35.12-10.25,4-19.15,2.31-27.37-5.06C229,437,185.27,397.63,141.07,358.84a32.51,32.51,0,0,0-18.87-7.27c-23.32-.86-46.69-.12-70-.4C18.3,350.76.55,333.25.15,299.64c-.33-28.73-.28-57.47,0-86.21C.44,180.16,19.58,161.34,53.25,161c22.45-.22,44.93.61,67.33-.41,7.26-.34,15.82-3.33,21.24-8,41.37-35.88,82.18-72.42,123-108.93,11.22-10,23.21-15.29,38-8.69S321.74,53.86,321.7,69C321.51,131.86,321.62,194.72,321.62,257.58Z" transform="translate(0.08 -32.01)"/><path d="M547.84,257.12c-.7,57.3-22.49,105.16-64.79,143.77-13.26,12.1-28.49,13.49-38.3,3.72-10-10-8.18-24.72,5.82-37.54,28.65-26.23,46.17-57.85,49.28-97,3.61-45.21-10.9-83.69-42.79-115.76-3.79-3.81-7.94-7.3-11.46-11.34-8.72-10-9.22-23.17-1.53-31.8,7.92-8.88,23.27-11,32.82-1.72,15,14.61,30,29.89,41.53,47.18C538.43,186.66,548.33,220.56,547.84,257.12Z" transform="translate(0.08 -32.01)"/><path d="M450.7,255.88c-.25,29.53-10.65,53-30.85,72.12-10.49,10-25.84,11.09-35.06,2.51C375,321.4,374.57,307,385.36,296c13-13.28,21.87-28,16.95-46.76-2.48-9.46-8.12-18.73-14.35-26.46-11.62-14.41-13.53-28.24-3.18-38.08s25-7.53,37.8,5.28C441.27,208.66,450.28,231.27,450.7,255.88Z" transform="translate(0.08 -32.01)"/></g></svg>