{
  "accessors": [
    {
      "bufferView": 2,
      "componentType": 5126,
      "count": 13330,
      "max": [
        1.0122865438461304,
        0.8302844762802124,
        1.0795068740844727
      ],
      "min": [
        -1.0017181634902954,
        -0.5257372260093689,
        -2.002490997314453
      ],
      "type": "VEC3"
    },
    {
      "bufferView": 2,
      "byteOffset": 159960,
      "componentType": 5126,
      "count": 13330,
      "max": [
        0.9996485710144043,
        0.9999005794525146,
        0.9992496967315674
      ],
      "min": [
        -0.9996293783187866,
        -0.9999030828475952,
        -0.9992802143096924
      ],
      "type": "VEC3"
    },
    {
      "bufferView": 3,
      "componentType": 5126,
      "count": 13330,
      "max": [
        1.0,
        0.9957147836685181,
        0.9995188117027283,
        -1.0
      ],
      "min": [
        -1.0,
        -0.9999694228172302,
        -0.9999898672103882,
        -1.0
      ],
      "type": "VEC4"
    },
    {
      "bufferView": 1,
      "componentType": 5126,
      "count": 13330,
      "max": [
        0.9806306958198547,
        0.9977536201477051
      ],
      "min": [
        0.0022438764572143555,
        0.018089473247528076
      ],
      "type": "VEC2"
    },
    {
      "bufferView": 1,
      "byteOffset": 106640,
      "componentType": 5126,
      "count": 13330,
      "max": [
        0.9806306958198547,
        0.9977536201477051
      ],
      "min": [
        0.0022438764572143555,
        0.018089473247528076
      ],
      "type": "VEC2"
    },
    {
      "bufferView": 1,
      "byteOffset": 213280,
      "componentType": 5126,
      "count": 13330,
      "max": [
        0.9806306958198547,
        0.9977536201477051
      ],
      "min": [
        0.0022438764572143555,
        0.018089473247528076
      ],
      "type": "VEC2"
    },
    {
      "bufferView": 1,
      "byteOffset": 319920,
      "componentType": 5126,
      "count": 13330,
      "max": [
        0.9806306958198547,
        0.9977536201477051
      ],
      "min": [
        0.0022438764572143555,
        0.018089473247528076
      ],
      "type": "VEC2"
    },
    {
      "bufferView": 0,
      "componentType": 5125,
      "count": 76560,
      "type": "SCALAR"
    },
    {
      "bufferView": 2,
      "byteOffset": 319920,
      "componentType": 5126,
      "count": 680,
      "max": [
        -0.6575735807418823,
        -0.42590874433517456,
        -1.4073913097381592
      ],
      "min": [
        -0.8635817766189575,
        -0.6406381130218506,
        -1.5148149728775024
      ],
      "type": "VEC3"
    },
    {
      "bufferView": 2,
      "byteOffset": 328080,
      "componentType": 5126,
      "count": 680,
      "max": [
        0.9995688199996948,
        0.982714831829071,
        0.9998828172683716
      ],
      "min": [
        -0.9993854761123657,
        -0.9827166199684143,
        -0.9994335174560547
      ],
      "type": "VEC3"
    },
    {
      "bufferView": 3,
      "byteOffset": 213280,
      "componentType": 5126,
      "count": 680,
      "max": [
        0.9769483208656311,
        0.9833219051361084,
        0.4728195071220398,
        -1.0
      ],
      "min": [
        -0.9344969391822815,
        -0.9822145104408264,
        -0.41116443276405334,
        -1.0
      ],
      "type": "VEC4"
    },
    {
      "bufferView": 1,
      "byteOffset": 426560,
      "componentType": 5126,
      "count": 680,
      "max": [
        0.9977493286132813,
        0.09916061162948608
      ],
      "min": [
        0.512847900390625,
        0.006751656532287598
      ],
      "type": "VEC2"
    },
    {
      "bufferView": 1,
      "byteOffset": 432000,
      "componentType": 5126,
      "count": 680,
      "max": [
        0.9977493286132813,
        0.09916061162948608
      ],
      "min": [
        0.512847900390625,
        0.006751656532287598
      ],
      "type": "VEC2"
    },
    {
      "bufferView": 1,
      "byteOffset": 437440,
      "componentType": 5126,
      "count": 680,
      "max": [
        0.9977493286132813,
        0.09916061162948608
      ],
      "min": [
        0.512847900390625,
        0.006751656532287598
      ],
      "type": "VEC2"
    },
    {
      "bufferView": 1,
      "byteOffset": 442880,
      "componentType": 5126,
      "count": 680,
      "max": [
        0.9977493286132813,
        0.09916061162948608
      ],
      "min": [
        0.512847900390625,
        0.006751656532287598
      ],
      "type": "VEC2"
    },
    {
      "bufferView": 0,
      "byteOffset": 306240,
      "componentType": 5125,
      "count": 3744,
      "type": "SCALAR"
    }
  ],
  "asset": {
    "extras": {
      "author": "Lisnik234 (https://sketchfab.com/Lisnik234)",
      "license": "CC-BY-4.0 (http://creativecommons.org/licenses/by/4.0/)",
      "source": "https://sketchfab.com/3d-models/stylized-cap-b4881db642f74f2b9f47be02e83caf67",
      "title": "Stylized Cap"
    },
    "generator": "Sketchfab-13.48.0",
    "version": "2.0"
  },
  "bufferViews": [
    {
      "buffer": 0,
      "byteLength": 321216,
      "name": "floatBufferViews",
      "target": 34963
    },
    {
      "buffer": 0,
      "byteLength": 448320,
      "byteOffset": 321216,
      "byteStride": 8,
      "name": "floatBufferViews",
      "target": 34962
    },
    {
      "buffer": 0,
      "byteLength": 336240,
      "byteOffset": 769536,
      "byteStride": 12,
      "name": "floatBufferViews",
      "target": 34962
    },
    {
      "buffer": 0,
      "byteLength": 224160,
      "byteOffset": 1105776,
      "byteStride": 16,
      "name": "floatBufferViews",
      "target": 34962
    }
  ],
  "buffers": [
    {
      "byteLength": 1329936,
      "uri": "scene.bin"
    }
  ],
  "images": [
    {
      "uri": "textures/Material.001_baseColor.png"
    },
    {
      "uri": "textures/Material.001_metallicRoughness.png"
    },
    {
      "uri": "textures/Material.001_normal.png"
    }
  ],
  "materials": [
    {
      "doubleSided": true,
      "name": "Material.001",
      "normalTexture": {
        "index": 2
      },
      "pbrMetallicRoughness": {
        "baseColorTexture": {
          "index": 0
        },
        "metallicRoughnessTexture": {
          "index": 1
        }
      }
    },
    {
      "doubleSided": true,
      "name": "Material.017",
      "normalTexture": {
        "index": 2
      },
      "pbrMetallicRoughness": {
        "baseColorTexture": {
          "index": 0
        },
        "metallicRoughnessTexture": {
          "index": 1
        }
      }
    }
  ],
  "meshes": [
    {
      "name": "Object_0",
      "primitives": [
        {
          "attributes": {
            "NORMAL": 1,
            "POSITION": 0,
            "TANGENT": 2,
            "TEXCOORD_0": 3,
            "TEXCOORD_1": 4,
            "TEXCOORD_2": 5,
            "TEXCOORD_3": 6
          },
          "indices": 7,
          "material": 0,
          "mode": 4
        }
      ]
    },
    {
      "name": "Object_1",
      "primitives": [
        {
          "attributes": {
            "NORMAL": 9,
            "POSITION": 8,
            "TANGENT": 10,
            "TEXCOORD_0": 11,
            "TEXCOORD_1": 12,
            "TEXCOORD_2": 13,
            "TEXCOORD_3": 14
          },
          "indices": 15,
          "material": 1,
          "mode": 4
        }
      ]
    }
  ],
  "nodes": [
    {
      "children": [
        1
      ],
      "matrix": [
        1.0,
        0.0,
        0.0,
        0.0,
        0.0,
        2.220446049250313e-16,
        -1.0,
        0.0,
        0.0,
        1.0,
        2.220446049250313e-16,
        0.0,
        0.0,
        0.0,
        0.0,
        1.0
      ],
      "name": "Sketchfab_model"
    },
    {
      "children": [
        2
      ],
      "name": "root"
    },
    {
      "children": [
        3,
        5
      ],
      "matrix": [
        1.0,
        0.0,
        0.0,
        0.0,
        0.0,
        2.220446049250313e-16,
        1.0,
        0.0,
        0.0,
        -1.0,
        2.220446049250313e-16,
        0.0,
        0.0,
        0.0,
        0.0,
        1.0
      ],
      "name": "GLTF_SceneRootNode"
    },
    {
      "children": [
        4
      ],
      "matrix": [
        1.0,
        0.0,
        0.0,
        0.0,
        0.0,
        1.0,
        0.0,
        0.0,
        0.0,
        0.0,
        1.0,
        0.0,
        0.0,
        0.1936686486005783,
        1.1506199836730957,
        1.0
      ],
      "name": "Sphere_0"
    },
    {
      "mesh": 0,
      "name": "Object_4"
    },
    {
      "children": [
        6
      ],
      "matrix": [
        1.0,
        0.0,
        0.0,
        0.0,
        0.0,
        1.0,
        0.0,
        0.0,
        0.0,
        0.0,
        1.0,
        0.0,
        0.0,
        0.1936686486005783,
        1.1506199836730957,
        1.0
      ],
      "name": "Sphere.002_1"
    },
    {
      "mesh": 1,
      "name": "Object_6"
    }
  ],
  "samplers": [
    {
      "magFilter": 9729,
      "minFilter": 9987,
      "wrapS": 10497,
      "wrapT": 10497
    }
  ],
  "scene": 0,
  "scenes": [
    {
      "name": "Sketchfab_Scene",
      "nodes": [
        0
      ]
    }
  ],
  "textures": [
    {
      "sampler": 0,
      "source": 0
    },
    {
      "sampler": 0,
      "source": 1
    },
    {
      "sampler": 0,
      "source": 2
    }
  ]
}
